<?xml version="1.0" standalone="no"?>
<!DOCTYPE svg PUBLIC "-//W3C//DTD SVG 20010904//EN"
 "http://www.w3.org/TR/2001/REC-SVG-20010904/DTD/svg10.dtd">
<svg version="1.0" xmlns="http://www.w3.org/2000/svg"
 width="193.000000pt" height="193.000000pt" viewBox="0 0 193.000000 193.000000"
 preserveAspectRatio="xMidYMid meet">
<metadata>
Created by potrace 1.11, written by Peter Selinger 2001-2013
</metadata>
<g transform="translate(0.000000,193.000000) scale(0.100000,-0.100000)"
fill="#000000" stroke="none">
<path d="M814 1915 c-216 -39 -377 -121 -527 -269 -372 -367 -379 -970 -15
-1347 195 -202 448 -304 731 -294 414 15 779 302 887 697 30 113 34 144 33
278 0 100 -6 144 -27 224 -109 418 -472 708 -901 721 -61 1 -141 -3 -181 -10z
m542 -389 c11 -27 50 -189 69 -296 8 -42 10 -50 18 -70 10 -28 30 -122 30
-147 0 -15 -13 -36 -31 -53 -17 -15 -28 -31 -24 -35 4 -4 3 -5 -3 -3 -5 1 -30
-11 -55 -28 -54 -37 -135 -68 -155 -60 -8 3 -15 1 -15 -5 0 -10 -105 -11 -123
-1 -13 6 -116 14 -179 13 -62 -1 -143 -24 -170 -48 -14 -13 -15 -20 -6 -37 6
-11 10 -22 9 -24 -3 -4 10 -73 36 -177 32 -132 36 -153 29 -179 -5 -22 -39
-44 -63 -40 -7 1 -17 2 -21 3 -23 3 -51 83 -56 159 0 12 -4 22 -7 22 -4 0 -9
15 -12 33 -5 33 -10 55 -26 122 -32 128 -41 176 -36 184 3 5 1 11 -3 13 -5 1
-16 39 -26 83 -10 44 -27 118 -37 164 -10 47 -17 87 -14 89 3 3 0 11 -6 18 -8
10 -5 22 11 48 24 40 107 116 125 116 7 0 25 7 41 15 22 11 30 12 36 2 5 -7 8
-8 8 -1 0 6 8 11 18 12 42 5 149 2 172 -4 14 -3 33 -6 43 -6 9 1 16 -2 13 -6
-4 -7 31 -6 114 1 33 3 119 38 144 58 6 5 33 28 60 52 27 24 56 44 64 44 7 0
20 -14 28 -31z"/>
<path d="M1245 1346 c-11 -6 -22 -13 -25 -16 -14 -15 -91 -42 -105 -36 -9 3
-13 2 -10 -4 10 -16 -130 -18 -205 -4 -52 10 -160 10 -208 0 -41 -9 -89 -54
-84 -81 2 -11 17 -75 33 -143 16 -68 27 -127 24 -133 -9 -14 18 -11 51 5 61
30 205 39 334 21 25 -3 54 -7 65 -8 36 -2 106 13 143 32 42 22 102 71 87 71
-6 0 -12 8 -12 18 -5 48 -9 68 -16 78 -4 7 -8 28 -9 48 -2 20 -6 36 -10 36 -4
0 -7 8 -7 18 1 9 -5 38 -13 63 -12 42 -15 45 -33 35z"/>
</g>
</svg>
